<?xml version="1.0" encoding="utf-8"?>
<!-- Generator: Adobe Illustrator 25.0.1, SVG Export Plug-In . SVG Version: 6.00 Build 0)  -->
<svg version="1.1" id="Layer_1" xmlns="http://www.w3.org/2000/svg" xmlns:xlink="http://www.w3.org/1999/xlink" x="0px" y="0px"
	 viewBox="0 0 500 500" style="enable-background:new 0 0 500 500;" xml:space="preserve">
<style type="text/css">
	.st0{fill:#14A800;}
	.st1{fill:#FFFFFF;}
</style>
<g id="Layer_2_1_">
	<g id="Layer_1-2">
		<rect class="st0" width="500" height="500"/>
	</g>
</g>
<path class="st1" d="M350.3,300.1c-28.4,0-47.2-21.9-52.4-30.4c6.7-53.8,26.4-70.8,52.4-70.8c25.7,0,45.7,20.6,45.7,50.6
	S376,300.1,350.3,300.1 M350.3,165.8c-46.3,0-72.2,30.2-79.6,61.2c-8.4-15.8-14.6-37-19.5-56.7H221h-33.7V250
	c0,28.9-13.1,50.2-38.9,50.2s-40.5-21.3-40.5-50.2l0.3-79.6H71.3V250c0,23.2,7.5,44.3,21.2,59.3c14.1,15.5,33.4,23.7,55.8,23.7
	c44.5,0,75.5-34.1,75.5-83v-53.5c4.7,17.6,15.7,51.4,36.9,81.1L241,390.3h37.5l13.1-79.8c4.3,3.5,8.8,6.8,13.6,9.6
	c12.5,7.9,26.9,12.4,41.7,12.9h0.1c1.1,0,2.2,0.1,3.4,0.1c45.9,0,82.4-35.5,82.4-83.4S396.2,165.8,350.3,165.8"/>
</svg>
